REM MD5 39eed139f993b140948eed7f565df709
FILE "Italian Job, The (Italy).bin" BINARY
  TRACK 01 MODE2/2352
    INDEX 01 00:00:00
  TRACK 02 AUDIO
    INDEX 00 63:46:59
    INDEX 01 63:48:59
  TRACK 03 AUDIO
    INDEX 00 64:36:61
    INDEX 01 64:38:61
REM LEADOUT 67:40:18
